<svg width="200px" height="200px" viewBox="0 0 100 100" xmlns="http://www.w3.org/2000/svg" version="1.1">
  <title>Talksphere Logo</title>
  <desc>A minimalist logo showing two speech bubbles forming a sphere.</desc>
  
  <g stroke="none" stroke-width="1" fill-rule="evenodd">
    
    <path d="M50,2 C23.49,2 2,23.49 2,50 C2,70.13 12.83,87.6 30,94.5 C35,78 50,70 50,50 C50,30 68,22 83,18 C73,8 62,2 50,2 Z" fill="#2D6BEE"></path>
    
    <path d="M50,98 C76.51,98 98,76.51 98,50 C98,29.87 87.17,12.4 70,5.5 C65,22 50,30 50,50 C50,70 32,78 17,82 C27,92 38,98 50,98 Z" fill="#4FA6FF"></path>
    
  </g>
</svg>